<svg width="200" height="141" viewBox="0 0 200 141" fill="none" xmlns="http://www.w3.org/2000/svg">
<path d="M138.504 40C136.141 40 134.219 41.8995 134.219 44.2041L133.903 68.0273C133.333 68.4105 132.769 68.8155 132.234 69.2535C131.591 69.779 131.512 70.7315 132.053 71.3555C132.595 71.9796 134.003 71.8755 134.646 71.3555C137.028 67.8521 142.657 65.7978 148.434 65.7978C158.983 65.7978 166.029 72.0346 166.029 80.6338C166.029 81.4495 166.029 82.7501 166.029 84.0041C166.029 84.0041 165.762 84.0041 167.206 84.0041C167.206 83.6702 167.223 82.401 167.206 82.0671H191.754C193.942 82.0671 196.466 81.9601 197.245 79.8854L199.799 69.6914C200.16 68.728 200.031 67.7536 199.439 66.9325C198.694 65.9033 197.245 65.2245 195.739 65.2245H171.436L165.482 43.8975C164.957 41.4944 163.294 40 161.196 40H138.504ZM189.075 46.9192C182.703 46.9192 178.88 50.5157 178.88 56.5536V62.4218H187.722V56.8164C187.722 53.5319 188.709 52.7382 188.985 52.6999C189.403 52.7272 189.803 52.5849 190.113 52.3057C190.423 52.0266 190.609 51.6215 190.609 51.2109V48.4082C190.609 47.5926 189.916 46.9192 189.075 46.9192ZM141.437 47.0068H159.436L162.955 59.6191H141.437V47.0068Z" fill="#F7FA46"/>
<path d="M183.711 84.9334C183.711 84.9334 185.078 87.6117 184.534 89.2331C183.09 93.5328 179.379 93.5327 179.379 93.5327C179.379 93.5327 175.87 93.5328 174.426 90.6663C172.982 87.7999 174.6 84.9334 174.6 84.9334H168.691C168.138 86.2472 167.834 87.665 167.834 89.1375C167.834 95.3177 173.016 100.348 179.382 100.348C185.749 100.348 190.931 95.3177 190.931 89.1375C190.931 87.1715 190.931 85.247 190.31 84.9335L183.711 84.9334Z" fill="#F7FA46"/>
<path d="M12.8962 69.2746C16.1311 69.2746 18.9581 69.9329 21.3771 71.2496C23.8251 72.5663 25.7049 74.395 27.0164 76.7358C28.3279 79.0766 28.9836 81.7393 28.9836 84.7238C28.9836 87.679 28.3279 90.3417 27.0164 92.7117C25.7049 95.0817 23.8251 96.9544 21.3771 98.3296C18.9581 99.6755 16.1311 100.349 12.8962 100.349H0V69.2746H12.8962ZM12.0219 91.6583C14.2077 91.6583 15.9417 91.0585 17.224 89.8589C18.5064 88.6592 19.1475 86.9475 19.1475 84.7238C19.1475 82.5 18.5064 80.7883 17.224 79.5887C15.9417 78.389 14.2077 77.7892 12.0219 77.7892H9.70492V91.6583H12.0219Z" fill="#028001"/>
<path d="M56.3569 87.7522C56.3569 88.4251 56.3132 89.0688 56.2258 89.6833H40.6192C40.7649 91.8193 41.6538 92.8873 43.2859 92.8873C44.335 92.8873 45.0928 92.4045 45.5591 91.4389H55.8323C55.4826 93.1945 54.7394 94.7745 53.6028 96.179C52.4953 97.5542 51.0819 98.6514 49.3624 99.4707C47.672 100.261 45.8068 100.656 43.7667 100.656C41.3186 100.656 39.1329 100.144 37.2094 99.1196C35.315 98.0955 33.8287 96.6325 32.7503 94.7306C31.7012 92.7995 31.1766 90.5465 31.1766 87.9716C31.1766 85.3967 31.7012 83.1584 32.7503 81.2565C33.8287 79.3253 35.315 77.8477 37.2094 76.8236C39.1329 75.7995 41.3186 75.2875 43.7667 75.2875C46.2148 75.2875 48.386 75.7995 50.2804 76.8236C52.2039 77.8184 53.6902 79.2522 54.7394 81.1248C55.8177 82.9974 56.3569 85.2066 56.3569 87.7522ZM46.5208 85.426C46.5208 84.6067 46.2585 83.9923 45.7339 83.5826C45.2094 83.1437 44.5536 82.9243 43.7667 82.9243C42.0472 82.9243 41.0418 83.7582 40.7503 85.426H46.5208Z" fill="#028001"/>
<path d="M83.2951 87.7522C83.2951 88.4251 83.2514 89.0688 83.1639 89.6833H67.5574C67.7031 91.8193 68.592 92.8873 70.224 92.8873C71.2732 92.8873 72.031 92.4045 72.4973 91.4389H82.7705C82.4208 93.1945 81.6776 94.7745 80.541 96.179C79.4335 97.5542 78.02 98.6514 76.3005 99.4707C74.6102 100.261 72.745 100.656 70.7049 100.656C68.2568 100.656 66.071 100.144 64.1475 99.1196C62.2532 98.0955 60.7668 96.6325 59.6885 94.7306C58.6393 92.7995 58.1148 90.5465 58.1148 87.9716C58.1148 85.3967 58.6393 83.1584 59.6885 81.2565C60.7668 79.3253 62.2532 77.8477 64.1475 76.8236C66.071 75.7995 68.2568 75.2875 70.7049 75.2875C73.153 75.2875 75.3242 75.7995 77.2186 76.8236C79.1421 77.8184 80.6284 79.2522 81.6776 81.1248C82.7559 82.9974 83.2951 85.2066 83.2951 87.7522ZM73.459 85.426C73.459 84.6067 73.1967 83.9923 72.6721 83.5826C72.1475 83.1437 71.4918 82.9243 70.7049 82.9243C68.9854 82.9243 67.98 83.7582 67.6885 85.426H73.459Z" fill="#028001"/>
<path d="M96.0693 80.1592C97.0602 78.7255 98.2697 77.5844 99.6977 76.7358C101.126 75.858 102.612 75.4191 104.157 75.4191V85.821H101.403C99.5666 85.821 98.2114 86.1429 97.3371 86.7866C96.4919 87.4303 96.0693 88.5714 96.0693 90.21V100.349H86.3644V75.5947H96.0693V80.1592Z" fill="#028001"/>
<path d="M130.64 87.7522C130.64 88.4251 130.596 89.0688 130.509 89.6833H114.902C115.048 91.8193 115.937 92.8873 117.569 92.8873C118.618 92.8873 119.376 92.4045 119.842 91.4389H130.115C129.765 93.1945 129.022 94.7745 127.886 96.179C126.778 97.5542 125.365 98.6514 123.645 99.4707C121.955 100.261 120.09 100.656 118.05 100.656C115.601 100.656 113.416 100.144 111.492 99.1196C109.598 98.0955 108.111 96.6325 107.033 94.7306C105.984 92.7995 105.459 90.5465 105.459 87.9716C105.459 85.3967 105.984 83.1584 107.033 81.2565C108.111 79.3253 109.598 77.8477 111.492 76.8236C113.416 75.7995 115.601 75.2875 118.05 75.2875C120.498 75.2875 122.669 75.7995 124.563 76.8236C126.487 77.8184 127.973 79.2522 129.022 81.1248C130.101 82.9974 130.64 85.2066 130.64 87.7522ZM120.804 85.426C120.804 84.6067 120.541 83.9923 120.017 83.5826C119.492 83.1437 118.836 82.9243 118.05 82.9243C116.33 82.9243 115.325 83.7582 115.033 85.426H120.804Z" fill="#028001"/>
<path d="M152.682 79.8959C152.303 79.2814 151.764 78.8133 151.064 78.4914C150.365 78.1403 149.52 77.9647 148.529 77.9647C146.663 77.9647 145.221 78.5792 144.201 79.8081C143.181 81.0078 142.671 82.6609 142.671 84.7677C142.671 87.1962 143.239 89.0103 144.376 90.21C145.512 91.4096 147.261 92.0095 149.622 92.0095C151.866 92.0095 153.673 91.1024 155.042 89.2883H147.305V82.3976H163.086V92.1411C161.745 94.4527 159.895 96.4423 157.534 98.1101C155.173 99.7487 152.186 100.568 148.572 100.568C145.367 100.568 142.569 99.9096 140.179 98.5929C137.818 97.247 135.997 95.3743 134.714 92.975C133.461 90.5757 132.835 87.8399 132.835 84.7677C132.835 81.6954 133.461 78.9596 134.714 76.5603C135.997 74.161 137.818 72.303 140.179 70.9863C142.54 69.6403 145.308 68.9673 148.485 68.9673C152.536 68.9673 155.829 69.9475 158.365 71.908C160.929 73.8684 162.445 76.531 162.911 79.8959H152.682Z" fill="#F7FA46"/>
</svg>
