<svg width="6000" height="6000" viewBox="0 0 6000 6000" fill="none" xmlns="http://www.w3.org/2000/svg">
<rect x="4496" y="4500" width="1500" height="1500" fill="#757575"/>
<rect x="5146" y="4500" width="200" height="800" fill="white"/>
<line x1="4496" y1="4550" x2="5296" y2="4550" stroke="white" stroke-width="100"/>
<line x1="4546" y1="4500" x2="4546" y2="5250" stroke="white" stroke-width="100"/>
<rect x="4496" y="5150" width="850" height="200" fill="white"/>
<rect x="5346" y="4500" width="650" height="851" fill="#028001"/>
<rect x="3000" y="4500" width="1500" height="1500" fill="#757575"/>
<rect x="3100" y="4599" width="550" height="751" fill="#028001"/>
<rect x="3846" y="4600" width="550" height="751" fill="#028001"/>
<line x1="3050" y1="4500" x2="3050" y2="6000" stroke="white" stroke-width="100"/>
<line x1="3000" y1="4549" x2="4500" y2="4549" stroke="white" stroke-width="100"/>
<rect x="3650" y="4500" width="200" height="850" fill="white"/>
<rect x="4400" y="4501" width="100" height="850" fill="white"/>
<rect x="3000" y="3000" width="1500" height="1500" fill="#757575"/>
<line x1="3050" y1="3000" x2="3050" y2="4500" stroke="white" stroke-width="100"/>
<line x1="3000" y1="3049" x2="4500" y2="3049" stroke="white" stroke-width="100"/>
<line x1="3000" y1="4450" x2="4500" y2="4450" stroke="white" stroke-width="100"/>
<rect x="3000" y="3650" width="1500" height="200" fill="white"/>
<rect x="4496" y="3000" width="1500" height="1500" fill="#757575"/>
<rect x="5346" y="3100" width="650" height="1400" fill="#028001"/>
<line x1="4496" y1="3049" x2="5996" y2="3049" stroke="white" stroke-width="100"/>
<line x1="4496" y1="4450" x2="5296" y2="4450" stroke="white" stroke-width="100"/>
<rect x="4496" y="3650" width="800" height="200" fill="white"/>
<rect x="5146" y="3000" width="200" height="1500" fill="white"/>
<rect x="1500" y="4499" width="1500" height="1500" fill="#757575"/>
<line x1="2950" y1="4499" x2="2950" y2="5999" stroke="white" stroke-width="100"/>
<line x1="1500" y1="4548" x2="3000" y2="4548" stroke="white" stroke-width="100"/>
<rect x="1500" y="5899" width="1500" height="100" fill="white"/>
<rect y="4499" width="1500" height="1500" fill="#757575"/>
<line y1="4549" x2="1500" y2="4549" stroke="white" stroke-width="100"/>
<rect x="650" y="4499" width="200" height="1500" fill="white"/>
<rect x="700" y="5899" width="800" height="100" fill="white"/>
<rect y="4599" width="650" height="1400" fill="#028001"/>
<rect y="2999" width="1500" height="1500" fill="#757575"/>
<line y1="3048" x2="1500" y2="3048" stroke="white" stroke-width="100"/>
<line y1="4449" x2="1500" y2="4449" stroke="white" stroke-width="100"/>
<rect y="3649" width="1500" height="200" fill="white"/>
<rect x="1400" y="2999" width="100" height="1500" fill="white"/>
<rect x="1500" y="2999" width="1500" height="1500" fill="#757575"/>
<line x1="1500" y1="4449" x2="3000" y2="4449" stroke="white" stroke-width="100"/>
<rect x="1500" y="2999" width="100" height="1500" fill="white"/>
<rect x="1501" y="2999" width="850" height="100" fill="white"/>
<rect x="2900" y="2999" width="100" height="1500" fill="white"/>
<rect x="2150" y="3649" width="850" height="200" fill="white"/>
<rect x="2150" y="2999" width="200" height="850" fill="white"/>
<rect x="2350" y="2999" width="550" height="650" fill="#028001"/>
<rect x="4500" y="1500" width="1500" height="1500" fill="#757575"/>
<line x1="4500" y1="2950" x2="6000" y2="2950" stroke="white" stroke-width="100"/>
<line x1="4500" y1="1550" x2="5300" y2="1550" stroke="white" stroke-width="100"/>
<rect x="5150" y="1500" width="200" height="1500" fill="white"/>
<rect x="5350" y="1500" width="650" height="1397" fill="#028001"/>
<rect x="3000" y="1500" width="1500" height="1500" fill="#757575"/>
<rect x="3000" y="2350" width="650" height="600" fill="#028001"/>
<rect x="3000" y="2150" width="850" height="203" fill="white"/>
<rect x="3650" y="2150" width="200" height="850" fill="white"/>
<line x1="4450" y1="1500" x2="4450" y2="1600" stroke="white" stroke-width="100"/>
<rect x="3000" y="1500" width="100" height="850" fill="white"/>
<rect x="3000" y="2900" width="1500" height="100" fill="white"/>
<rect x="3000" width="1500" height="1500" fill="#757575"/>
<line x1="3050" y1="2.18557e-06" x2="3050" y2="1500" stroke="white" stroke-width="100"/>
<line x1="4450" y1="750" x2="4450" y2="1500" stroke="white" stroke-width="100"/>
<rect x="3000" y="650" width="1500" height="200" fill="white"/>
<rect x="3100" width="1400" height="650" fill="#028001"/>
<rect x="4500" width="1500" height="1500" fill="#757575"/>
<line x1="4500" y1="1450" x2="5350" y2="1450" stroke="white" stroke-width="100"/>
<line x1="4550" y1="650" x2="4550" y2="1500" stroke="white" stroke-width="100"/>
<rect x="5350" y="650" width="650" height="850" fill="#028001"/>
<rect x="1500" y="1500" width="1500" height="1500" fill="#757575"/>
<path d="M1500 2950H2259" stroke="white" stroke-width="100"/>
<rect x="2150" y="2200" width="200" height="800" fill="white"/>
<rect x="2900" y="1559" width="100" height="800" fill="white"/>
<rect x="2150" y="2153" width="850" height="200" fill="white"/>
<rect x="1500" y="1500" width="100" height="1500" fill="white"/>
<rect x="1500" y="1500" width="1500" height="100" fill="white"/>
<rect x="2900" y="2900" width="100" height="100" fill="white"/>
<rect x="2350" y="2353" width="650" height="547" fill="#028001"/>
<rect x="2350" y="2453" width="550" height="547" fill="#028001"/>
<rect y="1499" width="1500" height="1500" fill="#757575"/>
<line y1="2949" x2="1500" y2="2949" stroke="white" stroke-width="100"/>
<rect x="1400" y="1499" width="100" height="1500" fill="white"/>
<rect y="1499" width="1500" height="100" fill="white"/>
<path d="M0 0H1500V1500H0V0Z" fill="#757575"/>
<line x1="50" y1="1464" x2="50" y2="714" stroke="white" stroke-width="100"/>
<line x1="1450" y1="1500" x2="1450" y2="750" stroke="white" stroke-width="100"/>
<line y1="1450" x2="1500" y2="1450" stroke="white" stroke-width="100"/>
<rect width="1500" height="714" fill="#028001"/>
<rect x="650" y="700" width="200" height="800" fill="white"/>
<rect y="614" width="1500" height="200" fill="white"/>
<rect x="1500" width="1500" height="1500" fill="#757575"/>
<line x1="2950" y1="2.18557e-06" x2="2950" y2="1500" stroke="white" stroke-width="100"/>
<line x1="1500" y1="1450" x2="3000" y2="1450" stroke="white" stroke-width="100"/>
<line x1="1550" y1="1499" x2="1550" y2="749" stroke="white" stroke-width="100"/>
<rect x="1500" width="850" height="714" fill="#028001"/>
<rect x="2150" y="689" width="200" height="800" fill="white"/>
<rect x="1500" y="614" width="850" height="200" fill="white"/>
</svg>
